<svg width="532" height="132" viewBox="0 0 532 132" fill="none" xmlns="http://www.w3.org/2000/svg">
<g clip-path="url(#clip0_253_180)">
<path d="M19.5796 20.8602L19.1239 20.8323C14.7726 20.5663 10.5176 22.5969 7.80918 26.2319L5.08713 29.8852L5.43393 25.2173C5.76574 20.7513 3.92969 16.4765 0.538489 13.8194L0.174561 13.5343L2.18584 13.3932C5.81494 13.1386 9.2208 11.3192 11.572 8.37929L14.6671 4.50928L14.4 9.32243C14.188 13.1433 15.5592 16.826 18.1687 19.4444L19.5796 20.8602Z" fill="#EE30CE"/>
</g>
<g clip-path="url(#clip1_253_180)">
<path d="M531.58 118.86L531.124 118.832C526.773 118.566 522.518 120.597 519.809 124.232L517.087 127.885L517.434 123.217C517.766 118.751 515.93 114.476 512.538 111.819L512.175 111.534L514.186 111.393C517.815 111.139 521.221 109.319 523.572 106.379L526.667 102.509L526.4 107.322C526.188 111.143 527.559 114.826 530.169 117.444L531.58 118.86Z" fill="#EE30CE"/>
</g>
<defs>
<clipPath id="clip0_253_180">
<rect width="20" height="34" fill="white"/>
</clipPath>
<clipPath id="clip1_253_180">
<rect width="20" height="34" fill="white" transform="translate(512 98)"/>
</clipPath>
</defs>
</svg>
