<svg width="121" height="25" viewBox="0 0 121 25" fill="none" xmlns="http://www.w3.org/2000/svg">
<path fill-rule="evenodd" clip-rule="evenodd" d="M72.4147 11.3223C56.3118 11.7626 40.2009 13.5092 24.1681 16.6312C16.5456 18.1158 7.69356 17.9302 0.300687 22.9917C-0.0676815 23.2464 0.00247297 24.0106 0.0104463 24.087C0.026393 24.2434 0.0933862 24.7637 0.386805 24.7892C0.418698 24.7929 0.643531 24.7201 0.729643 24.6946C2.91274 24.0396 5.08787 23.2756 7.27257 22.657C14.8153 20.5138 22.3804 18.8945 29.9567 17.4754C40.0127 15.5906 50.1548 14.5862 60.2379 13.8003C65.757 13.3709 71.4085 13.9422 76.9452 13.0543C78.9784 13.0289 81.0116 13.0253 83.0448 13.0398C91.5444 13.109 100.034 13.844 108.52 14.8519C111.248 15.1758 113.329 15.5251 116 15.7616C117.014 15.8526 118.623 15.9144 119.743 15.9545C119.907 15.9617 120.326 15.969 120.5 15.9726C120.518 15.9799 120.535 15.9799 120.555 15.9799C120.622 15.9799 120.653 15.9689 120.66 15.9689C121.039 15.8416 121.004 15.0229 120.995 14.8992C120.993 14.8737 120.936 14.1823 120.609 14.1569C120.531 14.1496 119.971 14.1424 119.756 14.1351C118.643 14.0951 117.04 14.0332 116.03 13.9459C113.364 13.7094 111.285 13.36 108.561 13.0362C100.063 12.0283 91.5603 11.2896 83.048 11.2205C82.0082 11.2132 80.9669 11.2096 79.9272 11.2132C79.8921 11.0058 79.814 10.7729 79.6418 10.671C79.4807 10.5764 78.3278 10.4927 77.8829 10.4091C74.5899 9.79047 74.6871 9.81957 71.064 9.31379C65.5768 8.54602 64.7412 8.37128 59.0339 8.04743C48.6669 7.45796 38.2952 7.50532 27.9267 7.56354C22.8078 7.59629 17.3269 8.38588 12.1299 6.9122C13.8426 6.45372 15.5616 6.11896 17.2775 5.7369C23.1363 4.43423 28.9999 3.6264 34.8826 3.05876C48.9939 1.69787 63.1274 1.15574 77.2338 3.01149C74.231 3.07699 71.2299 3.22977 68.2271 3.32802C56.004 3.73555 43.6629 3.42993 31.4653 5.54403C31.2468 5.58406 31.0826 6.02068 31.0985 6.51919C31.1144 7.02133 31.3074 7.39614 31.5259 7.35975C43.7075 5.24565 56.0311 5.55492 68.2383 5.14738C72.7735 4.99819 77.3072 4.72895 81.8424 4.809C83.3988 4.83811 84.9552 4.96913 86.5116 5.01279C86.8194 5.02371 87.6119 5.16198 87.7251 5.10376C87.9755 4.97641 88.0297 4.55429 88.0456 4.34688C88.0536 4.22316 88.0791 3.50997 87.6964 3.25526C85.0844 1.51595 80.2637 1.596 77.725 1.25396C63.4447 -0.674563 49.1358 -0.136046 34.8492 1.23939C28.9521 1.81067 23.0741 2.62216 17.1994 3.92846C15.147 4.3833 13.0899 4.77628 11.0456 5.38031C10.7155 5.47855 9.97394 5.62049 9.61514 5.76968C9.46524 5.83153 9.3568 5.9188 9.30896 5.98066C9.12238 6.22082 9.0889 6.57014 9.0889 6.80666C9.0873 6.9886 9.12079 7.62901 9.51149 7.80367C15.4644 10.4636 21.9419 9.41929 27.9283 9.38291C38.2904 9.32469 48.6542 9.27732 59.0147 9.8668C64.7077 10.1906 65.5401 10.3617 71.0162 11.1295C71.5568 11.2023 72.0145 11.2677 72.4147 11.3223Z" fill="#EB3737"/>
</svg>
