<svg width="1440" height="135" viewBox="0 0 1440 135" fill="none" xmlns="http://www.w3.org/2000/svg">
<path d="M12.2864 124.191L-3 119.867V-32H1568.76V133.379L1555.66 130.676L1544.2 133.379H1498.34L1481.41 130.676H1459.58L1450.84 126.893L1435.56 130.676H1423.54L1412.63 126.893H1397.34L1385.33 130.676L1375.5 126.893L1358.03 125.812L1337.29 126.893L1320.36 125.812L1303.44 119.867L1271.77 126.893L1258.12 125.812H1228.64L1220.45 124.191L1208.99 126.893H1193.7L1184.42 130.676H1173.5L1160.4 126.893L1140.2 135L1120.55 130.676L1099.26 135L1082.88 130.676H1069.23H1046.84L1038.66 126.893H1022.82L1000.44 130.676H992.251L986.245 126.893H969.867L956.219 125.812L954.581 126.893L948.576 123.65L922.37 126.893H916.365H902.716L889.068 130.676H873.782H849.214C841.353 127.65 827.741 129.415 821.917 130.676C815.366 129.415 801.717 126.893 799.534 126.893H790.253C789.379 126.893 783.701 129.415 780.972 130.676L751.491 124.191L744.394 126.893L720.918 124.191V128.515L687.616 124.191H671.783H661.41L647.216 118.246H601.903L587.162 124.191H577.881H560.411H550.038C546.217 122.209 537.809 118.246 534.752 118.246C531.695 118.246 522.559 122.209 518.374 124.191H497.628C493.988 120.408 484.307 113.922 474.699 118.246C465.09 122.57 451.405 124.011 445.764 124.191L438.666 129.595C435.573 127.794 428.403 124.191 424.472 124.191C420.541 124.191 414.827 127.794 412.461 129.595C411.005 131.217 405.036 133.487 392.807 129.595C380.578 125.704 367.694 127.974 362.781 129.595H350.224H338.759H332.208L304.365 124.191H275.43H262.327L247.041 129.595H218.652H195.177H174.977L147.134 124.191L140.583 134.46H126.388L100.729 129.595H84.3506H64.1508C60.6567 129.595 47.0446 125.992 40.6753 124.191L21.5674 119.867L12.2864 116.084V124.191Z" fill="white"/>
<path d="M12.2864 124.191L-3 119.867V-32H1568.76V133.379L1555.66 130.676L1544.2 133.379H1498.34L1481.41 130.676H1459.58L1450.84 126.893L1435.56 130.676H1423.54L1412.63 126.893H1397.34L1385.33 130.676L1375.5 126.893L1358.03 125.812L1337.29 126.893L1320.36 125.812L1303.44 119.867L1271.77 126.893L1258.12 125.812H1228.64L1220.45 124.191L1208.99 126.893H1193.7L1184.42 130.676H1173.5L1160.4 126.893L1140.2 135L1120.55 130.676L1099.26 135L1082.88 130.676H1069.23H1046.84L1038.66 126.893H1022.82L1000.44 130.676H992.251L986.245 126.893H969.867L956.219 125.812L954.581 126.893L948.576 123.65L922.37 126.893H916.365H902.716L889.068 130.676H873.782H849.214C841.353 127.65 827.741 129.415 821.917 130.676C815.366 129.415 801.717 126.893 799.534 126.893H790.253C789.379 126.893 783.701 129.415 780.972 130.676L751.491 124.191L744.394 126.893L720.918 124.191V128.515L687.616 124.191H671.783H661.41L647.216 118.246H601.903L587.162 124.191H577.881H560.411H550.038C546.217 122.209 537.809 118.246 534.752 118.246C531.695 118.246 522.559 122.209 518.374 124.191H497.628C493.988 120.408 484.307 113.922 474.699 118.246C465.09 122.57 451.405 124.011 445.764 124.191L438.666 129.595C435.573 127.794 428.403 124.191 424.472 124.191C420.541 124.191 414.827 127.794 412.461 129.595C411.005 131.217 405.036 133.487 392.807 129.595C380.578 125.704 367.694 127.974 362.781 129.595H350.224H338.759H332.208L304.365 124.191H275.43H262.327L247.041 129.595H218.652H195.177H174.977L147.134 124.191L140.583 134.46H126.388L100.729 129.595H84.3506H64.1508C60.6567 129.595 47.0446 125.992 40.6753 124.191L21.5674 119.867L12.2864 116.084V124.191Z" fill="white"/>
</svg>
