<svg width="1280" height="656" viewBox="0 0 1280 656" fill="none" xmlns="http://www.w3.org/2000/svg">
<g clip-path="url(#clip0_253_413)">
<g opacity="0.2">
<path d="M-113 44.2251C-48.1 98.1251 362.2 -1.97484 464.5 -39.3748C669.1 -115.275 1060.7 -208.775 1549.1 -108.675" stroke="white" stroke-width="1.1"/>
<path d="M-113 84.9253C-48.1 138.825 362.2 38.7254 464.5 1.32535C669.1 -74.5747 1060.7 -168.075 1549.1 -67.9747" stroke="white" stroke-width="1.1"/>
<path d="M-113 125.625C-48.1 179.525 362.2 79.4251 464.5 42.0251C669.1 -33.8749 1060.7 -127.375 1549.1 -27.2749" stroke="white" stroke-width="1.1"/>
<path d="M-113 166.325C-48.1 220.225 362.2 120.125 464.5 82.7253C669.1 6.82525 1060.7 -86.6748 1549.1 13.4253" stroke="white" stroke-width="1.1"/>
<path d="M-113 207.025C-48.1 260.925 362.2 160.825 464.5 123.425C669.1 47.525 1060.7 -45.975 1549.1 54.125" stroke="white" stroke-width="1.1"/>
<path d="M-113 247.725C-48.1 301.625 362.2 201.525 464.5 164.125C669.1 88.2252 1060.7 -5.27485 1549.1 94.8252" stroke="white" stroke-width="1.1"/>
<path d="M-113 288.425C-48.1 342.325 362.2 242.225 464.5 204.825C669.1 128.925 1060.7 35.4253 1549.1 135.525" stroke="white" stroke-width="1.1"/>
<path d="M-113 329.125C-48.1 383.025 362.2 282.925 464.5 245.525C669.1 169.625 1060.7 76.1251 1549.1 176.225" stroke="white" stroke-width="1.1"/>
<path d="M-113 369.825C-48.1 423.725 362.2 323.625 464.5 286.225C669.1 210.325 1060.7 116.825 1549.1 216.925" stroke="white" stroke-width="1.1"/>
<path d="M-113 410.525C-48.1 464.425 362.2 364.325 464.5 326.925C669.1 251.025 1060.7 157.525 1549.1 257.625" stroke="white" stroke-width="1.1"/>
<path d="M-113 451.225C-48.1 505.125 362.2 405.025 464.5 367.625C669.1 291.725 1060.7 198.225 1549.1 298.325" stroke="white" stroke-width="1.1"/>
<path d="M-113 491.925C-48.1 545.825 362.2 445.725 464.5 408.325C669.1 332.425 1060.7 238.925 1549.1 339.025" stroke="white" stroke-width="1.1"/>
<path d="M-114.1 534.825C-49.2 588.725 361.1 488.625 463.4 451.225C668 375.325 1059.6 281.825 1548 381.925" stroke="white" stroke-width="1.1"/>
<path d="M-115.2 577.725C-50.2999 631.625 360 530.425 462.3 493.025C666.9 418.225 1058.5 323.625 1546.9 423.725" stroke="white" stroke-width="1.1"/>
<path d="M-116.3 619.525C-51.3999 673.425 358.9 573.325 461.2 535.925C665.8 460.025 1057.4 366.525 1545.8 466.625" stroke="white" stroke-width="1.1"/>
<path d="M-117.4 662.425C-52.5 716.325 357.8 616.225 460.1 578.825C664.7 502.925 1056.3 409.425 1544.7 509.525" stroke="white" stroke-width="1.1"/>
<path d="M-118.5 705.325C-53.6 759.225 356.7 658.025 459 620.625C663.6 545.825 1055.2 451.225 1543.6 551.325" stroke="white" stroke-width="1.1"/>
<path d="M-119.6 747.125C-54.7 801.025 355.6 700.925 457.9 663.525C662.5 587.625 1054.1 494.125 1542.5 594.225" stroke="white" stroke-width="1.1"/>
<path d="M-120.7 790.025C-55.7999 843.925 354.5 743.825 456.8 706.425C661.4 630.525 1053 537.025 1541.4 637.125" stroke="white" stroke-width="1.1"/>
<path d="M-121.8 832.925C-56.8999 886.825 353.4 785.625 455.7 748.225C660.3 673.425 1051.9 578.825 1540.3 678.925" stroke="white" stroke-width="1.1"/>
<path d="M-122.9 874.725C-58 928.625 352.3 828.525 454.6 791.125C659.2 715.225 1050.8 621.725 1539.2 721.825" stroke="white" stroke-width="1.1"/>
</g>
</g>
<defs>
<clipPath id="clip0_253_413">
<rect width="1408" height="983.25" fill="white" transform="translate(-80 -80)"/>
</clipPath>
</defs>
</svg>
