<svg width="48" height="48" viewBox="0 0 48 48" fill="none" xmlns="http://www.w3.org/2000/svg">
<g clip-path="url(#clip0_255_1166)">
<path fill-rule="evenodd" clip-rule="evenodd" d="M19.8701 37.7803C17.2967 39.5918 14.4926 40.3255 11.8539 39.6185C5.45254 37.9033 2.44825 28.3582 5.14362 18.2988C7.83903 8.23958 15.2133 1.47542 21.6147 3.19066C24.2534 3.8977 26.3149 5.93517 27.6379 8.79067C30.267 6.99416 33.1406 6.279 35.8547 7.00623C42.4389 8.77051 45.5915 18.3553 42.8961 28.4146C40.2007 38.4738 32.6781 45.1983 26.0938 43.434C23.3797 42.7068 21.2488 40.6508 19.8701 37.7803Z" fill="white"/>
<path d="M26.6504 40.0336C31.5885 41.3568 37.4192 35.6092 39.6735 27.196C41.9278 18.7828 39.7521 10.8899 34.8139 9.56673C29.8757 8.24355 24.0451 13.9911 21.7908 22.4044C19.5365 30.8176 21.7122 38.7105 26.6504 40.0336Z" fill="white" stroke="black" stroke-width="1.37138"/>
<path d="M30.5325 20.6533C31.6018 18.6656 32.9727 17.1575 34.4119 16.386C35.851 15.6144 37.2692 15.6271 38.4249 16.4219C39.5806 17.2168 40.4022 18.7445 40.7497 20.745C41.0973 22.7453 40.9493 25.0946 40.331 27.3924C39.7126 29.6903 38.6622 31.7944 37.3587 33.3465C36.0552 34.8986 34.5792 35.8025 33.1823 35.9042C31.7853 36.006 30.5539 35.2993 29.6977 33.9044C28.8415 32.5096 28.4137 30.5131 28.487 28.255L34.7063 25.8651L30.5325 20.6533Z" fill="black"/>
<path d="M12.7414 36.3066C17.6796 37.6298 23.5103 31.8822 25.7646 23.469C28.0189 15.0558 25.8432 7.16286 20.905 5.83968C15.9668 4.5165 10.1361 10.2641 7.88183 18.6773C5.62752 27.0905 7.80323 34.9834 12.7414 36.3066Z" fill="white" stroke="black" stroke-width="1.37138"/>
<path d="M16.6236 16.9262C17.6928 14.9386 19.0639 13.4305 20.503 12.6589C21.9421 11.8873 23.3603 11.9001 24.516 12.6949C25.6717 13.4897 26.4933 15.0175 26.8409 17.0179C27.1884 19.0183 27.0404 21.3675 26.422 23.6653C25.8038 25.9632 24.7533 28.0674 23.4498 29.6195C22.1463 31.1716 20.6703 32.0754 19.2733 32.1772C17.8764 32.2789 16.645 31.5722 15.7888 30.1774C14.9327 28.7825 14.5047 26.786 14.578 24.5279L20.7973 22.1381L16.6236 16.9262Z" fill="black"/>
</g>
<defs>
<clipPath id="clip0_255_1166">
<rect width="48" height="47.3125" fill="white"/>
</clipPath>
</defs>
</svg>
