<svg width="26" height="26" viewBox="0 0 26 26" fill="none" xmlns="http://www.w3.org/2000/svg">
<g clip-path="url(#clip0_255_1257)">
<path fill-rule="evenodd" clip-rule="evenodd" d="M13.0004 16.2828C12.5896 16.2828 12.1828 16.2019 11.8033 16.0447C11.4238 15.8875 11.0789 15.6571 10.7885 15.3666C10.498 15.0761 10.2676 14.7313 10.1104 14.3518C9.95318 13.9723 9.87227 13.5655 9.87227 13.1547C9.87227 12.7439 9.95318 12.3371 10.1104 11.9576C10.2676 11.5781 10.498 11.2333 10.7885 10.9428C11.0789 10.6523 11.4238 10.4219 11.8033 10.2647C12.1828 10.1075 12.5896 10.0266 13.0004 10.0266C13.83 10.0266 14.6257 10.3561 15.2123 10.9428C15.7989 11.5294 16.1285 12.3251 16.1285 13.1547C16.1285 13.9843 15.7989 14.78 15.2123 15.3666C14.6257 15.9533 13.83 16.2828 13.0004 16.2828ZM13.0004 8.33594C11.7224 8.33594 10.4967 8.84363 9.59302 9.74732C8.68933 10.651 8.18164 11.8767 8.18164 13.1547C8.18164 14.4327 8.68933 15.6584 9.59302 16.5621C10.4967 17.4658 11.7224 17.9735 13.0004 17.9735C14.2784 17.9735 15.5041 17.4658 16.4078 16.5621C17.3115 15.6584 17.8191 14.4327 17.8191 13.1547C17.8191 11.8767 17.3115 10.651 16.4078 9.74732C15.5041 8.84363 14.2784 8.33594 13.0004 8.33594ZM19.221 8.24844C19.221 8.55053 19.101 8.84027 18.8874 9.05387C18.6738 9.26749 18.384 9.3875 18.082 9.3875C17.7799 9.3875 17.4901 9.26749 17.2765 9.05387C17.0629 8.84027 16.9429 8.55053 16.9429 8.24844C16.9429 7.94634 17.0629 7.65662 17.2765 7.443C17.4901 7.22939 17.7799 7.10938 18.082 7.10938C18.384 7.10938 18.6738 7.22939 18.8874 7.443C19.101 7.65662 19.221 7.94634 19.221 8.24844Z" fill="#20DB50"/>
<path d="M20.7677 2.33301H5.97363C4.17871 2.33301 2.72363 3.78808 2.72363 5.58301V19.8831C2.72363 21.678 4.17871 23.1331 5.97363 23.1331H20.7677C22.5627 23.1331 24.0177 21.678 24.0177 19.8831V5.58301C24.0177 3.78808 22.5627 2.33301 20.7677 2.33301Z" stroke="#20DB50" stroke-width="1.5"/>
</g>
<defs>
<clipPath id="clip0_255_1257">
<rect width="26" height="25" fill="white" transform="translate(0 0.654297)"/>
</clipPath>
</defs>
</svg>
