<svg width="27" height="26" viewBox="0 0 27 26" fill="none" xmlns="http://www.w3.org/2000/svg">
<g clip-path="url(#clip0_255_1263)">
<path d="M8.93056 7.3252C8.14641 7.3252 7.57715 7.86593 7.57715 8.61097C7.57715 9.35602 8.13507 9.89598 8.90368 9.89598C9.2713 9.90793 9.62864 9.7735 9.89725 9.52224C10.0183 9.40254 10.1137 9.25956 10.178 9.10193C10.2422 8.9443 10.2738 8.7753 10.2709 8.60511C10.2529 7.85153 9.70185 7.3252 8.93056 7.3252Z" fill="#14BC3F"/>
<path d="M9.54775 9.1632C9.3722 9.32211 9.14104 9.40532 8.90448 9.39477C8.41904 9.39477 8.08008 9.07289 8.08008 8.6119C8.08008 8.14314 8.42235 7.82812 8.93149 7.82812C9.42941 7.82812 9.75818 8.13817 9.76939 8.61202C9.77142 8.71408 9.75284 8.81549 9.71475 8.91019C9.67667 9.0049 9.61987 9.09096 9.54775 9.1632Z" fill="#14BC3F"/>
<path d="M10.0737 10.3203H7.81738V18.6157H10.0737V10.3203Z" fill="#14BC3F"/>
<path d="M8.32129 10.8213H9.57356V18.1125H8.32129V10.8213Z" fill="#14BC3F"/>
<path d="M16.0241 10.3203C14.9778 10.3203 14.3372 10.6814 13.966 11.0209L13.8955 10.3203H11.3428V18.6156H13.8429V14.2557C13.8531 14.0243 13.8948 13.7953 13.9667 13.5751C14.2687 12.9246 14.6762 12.9246 15.2932 12.9246C16.0039 12.9246 16.6042 13.5911 16.6042 14.3798V18.6156H19.1145V13.9286C19.1145 11.4494 17.5124 10.3203 16.0241 10.3203Z" fill="#14BC3F"/>
<path d="M18.6112 18.1125H17.1052V14.3788C17.1052 13.3178 16.2749 12.4214 15.2921 12.4214C14.6615 12.4214 13.9469 12.4214 13.5101 13.3626C13.4068 13.6491 13.3493 13.95 13.3397 14.2543V18.1121H11.8438V10.8214H13.4405L13.5424 11.8366H13.9537L14.0272 11.7179C14.1947 11.4484 14.7242 10.8213 16.0225 10.8213C17.269 10.8213 18.6107 11.7933 18.6107 13.9276L18.6112 18.1125Z" fill="#14BC3F"/>
<path d="M22.125 1.83496H5.125C3.33007 1.83496 1.875 3.29004 1.875 5.08496V21.5432C1.875 23.3381 3.33007 24.7932 5.125 24.7932H22.125C23.9199 24.7932 25.375 23.3381 25.375 21.5432V5.08496C25.375 3.29004 23.9199 1.83496 22.125 1.83496Z" stroke="#14BC3F" stroke-width="1.5"/>
</g>
<defs>
<clipPath id="clip0_255_1263">
<rect width="26" height="25" fill="white" transform="translate(0.625 0.952148)"/>
</clipPath>
</defs>
</svg>
